PathFileType	4	(X/Y/Z)	C:\Github\BTS_project\Data\sports2d_results\test6 Exam_2026-03-06_143334_tvc4_Sports2D\test6 Exam_2026-03-06_143334_tvc4_Sports2D_m_person00.trc
DataRate	CameraRate	NumFrames	NumMarkers	Units	OrigDataRate	OrigDataStartFrame	OrigNumFrames
30.0	30.0	8	22	m	30.0	70	112
Frame#	Time	Hip			RHip			RKnee			RAnkle			RBigToe			RSmallToe			RHeel			LHip			LKnee			LAnkle			LBigToe			LSmallToe			LHeel			Neck			Head			Nose			RShoulder			RElbow			RWrist			LShoulder			LElbow			LWrist			
		X1	Y1	Z1	X2	Y2	Z2	X3	Y3	Z3	X4	Y4	Z4	X5	Y5	Z5	X6	Y6	Z6	X7	Y7	Z7	X8	Y8	Z8	X9	Y9	Z9	X10	Y10	Z10	X11	Y11	Z11	X12	Y12	Z12	X13	Y13	Z13	X14	Y14	Z14	X15	Y15	Z15	X16	Y16	Z16	X17	Y17	Z17	X18	Y18	Z18	X19	Y19	Z19	X20	Y20	Z20	X21	Y21	Z21	X22	Y22	Z22
178	5.960426179604261	1.3609765244397345	1.3848398345711412	0.0301	1.1612257984333747	1.3782934774790094	0.0301	0.9938489397519775	0.8133950430339418	0.129	0.816070856500526	0.20823900302522247	0.023	0.8913382735780286	0.037567757869044434	0.2179	0.7732638831508112	0.046064925887374666	0.1804	0.7733547527980282	0.11109883760668289	-0.0119	1.542471874566571	1.3072128207579181	0.0301	1.5061159937407724	0.7481149591758401	0.129	1.427874493762198	0.18493300194058615	0.023	1.5951879525044577	0.039833191664612216	0.2179	1.6126161067544367	0.04707015802774443	0.1804	1.3410793597550288	0.08602336548767082	-0.0119	1.4722681688141361	2.361752343294513	0.0008	1.5247911015419129	2.766309448569983	0.0655	1.5837117565187524	2.537578181169589	0.1076	1.1396646931912504	2.2399431032189874	-0.01275	0.9690068963099627	1.8583416425517085	0.0702	1.2842474825999155	1.8624723535013052	0.1076	1.730191983192126	2.1614248190179746	-0.01275	1.828759139400731	1.7404380955790513	0.0702	1.6997133754958509	1.75807839463469	0.1076
179	5.993911719939117	1.360455349907434	1.382411441094646	0.0301	1.1629003315025208	1.3764795617931564	0.0301	0.9934772004582472	0.8124821599445802	0.129	0.815279732937747	0.20804626144987354	0.023	0.8905062242405579	0.037982459293597184	0.2179	0.7723121173362967	0.046212864290001786	0.1804	0.7753455401490295	0.11014445191839986	-0.0119	1.5420544534293381	1.3056533685324294	0.0301	1.5058703978057426	0.746713627734504	0.129	1.42985891868197	0.18380960662042545	0.023	1.5910286590395097	0.03831708476884724	0.2179	1.6123031359114177	0.04524243574687932	0.1804	1.3441421870031225	0.08659637287737501	-0.0119	1.4722313672177867	2.362661500080666	0.0008	1.5234670397623733	2.766102388660058	0.0655	1.584993992404825	2.53819501908727	0.1076	1.1389232480658062	2.2386851369580105	-0.01275	0.969954695458336	1.8591883159845728	0.0702	1.2850722848822655	1.8628015533874707	0.1076	1.733582383397075	2.1611723775239464	-0.01275	1.8276731142770846	1.7389610940442688	0.0702	1.6953336718455911	1.7584391070171215	0.1076
180	6.027397260273972	1.360404363862221	1.3819654673952806	0.0301	1.1642825618008539	1.3743731247189148	0.0301	0.9939864178333424	0.8122880560605653	0.129	0.8144484930725484	0.20837675088204757	0.023	0.8895408844606637	0.03790376367787964	0.2179	0.7709493078324944	0.046206220210487675	0.1804	0.7758255887245986	0.11149081922419796	-0.0119	1.542827012414943	1.3056707421953686	0.0301	1.5058170980826457	0.7460774511963332	0.129	1.4291588328212854	0.18317863532302284	0.023	1.5907663935714251	0.03894287754898424	0.2179	1.6143123811021687	0.045527741310856525	0.1804	1.3455423145983931	0.08673920381583297	-0.0119	1.4723635376756492	2.3630404645989667	0.0008	1.5238279657565665	2.7637851678885483	0.0655	1.5871325867063533	2.5394819397725925	0.1076	1.1379934373800404	2.238429551136176	-0.01275	0.9710563836866569	1.858446764747709	0.0702	1.285854394498962	1.864716040033984	0.1076	1.7343658860972497	2.1624296098353435	-0.01275	1.8271735478284072	1.7412384372781367	0.0702	1.6974490748930977	1.7582338490919296	0.1076
181	6.060882800608828	1.3605072673683738	1.3825328717870333	0.0301	1.1640489875951558	1.3730865164095718	0.0301	0.9948539492513323	0.812400762149672	0.129	0.8144577615727668	0.2078637923873027	0.023	0.8896836872870817	0.037404889259807964	0.2179	0.7704913407330176	0.045851509493801616	0.1804	0.7744599507567146	0.11292518282690854	-0.0119	1.5449370858376377	1.3067496083596457	0.0301	1.5060301643346148	0.7459371442561122	0.129	1.4258946622297788	0.1832288704103978	0.023	1.5928458694981662	0.04072881903784323	0.2179	1.6145489755400955	0.04750977192372546	0.1804	1.3446758071139187	0.08526343428728556	-0.0119	1.4727273658780768	2.3628024841745634	0.0008	1.5243203301235029	2.7610775677486865	0.0655	1.5876283820810277	2.541948822811932	0.1076	1.1371046195420902	2.2384452781876667	-0.01275	0.9705583154014277	1.8571015795539743	0.0702	1.2825897982167516	1.8663208985770428	0.1076	1.7336055562354602	2.164736281012332	-0.01275	1.8286392367411468	1.744849228280973	0.0702	1.7069878078800351	1.756683370131037	0.1076
182	6.094368340943683	1.3606170593676066	1.383922794677914	0.0301	1.163558527154717	1.3744076922810415	0.0301	0.9951374832262032	0.8124789144116896	0.129	0.8153285345311881	0.20653051618210916	0.023	0.8911791415459445	0.03770618877080673	0.2179	0.7705986554912945	0.046367313795090445	0.1804	0.774584838628196	0.11279770559038318	-0.0119	1.5467459235028362	1.307183313090172	0.0301	1.506432947975203	0.7458775833222502	0.129	1.4236902711151962	0.18284409470785967	0.023	1.593454315219694	0.04132313571135682	0.2179	1.6134422019482375	0.048314484677308346	0.1804	1.3441947983749913	0.08343997840241382	-0.0119	1.4730513365271627	2.3624214605401614	0.0008	1.523369989369066	2.759987205862733	0.0655	1.5852119084024938	2.5444183882552776	0.1076	1.1367676122580874	2.2390509420246403	-0.01275	0.9681553688262968	1.8567551063937098	0.0702	1.276765343112503	1.8667479477006426	0.1076	1.7332249119554755	2.1653093279822326	-0.01275	1.828770030351465	1.7468261280213373	0.0702	1.715049973808744	1.7555219416877994	0.1076
183	6.127853881278538	1.3607397031753574	1.3863387534345337	0.0301	1.1650052048709838	1.3796011633137915	0.0301	0.994468482156235	0.8133218163390532	0.129	0.8157031259100936	0.2058822729694642	0.023	0.8927389635760946	0.03886442536484647	0.2179	0.7708270036091941	0.04770722754876992	0.1804	0.7765422629675297	0.11200587276631326	-0.0119	1.5470168561812367	1.30748015664097	0.0301	1.5065905800197223	0.7463472300519934	0.129	1.4243857209716984	0.1818642636024915	0.023	1.591501697550312	0.04015621453188854	0.2179	1.6135648952922197	0.04685886860415202	0.1804	1.3458568318891608	0.08306952601772041	-0.0119	1.4727249170565433	2.362597257671396	0.0008	1.5216912271220449	2.7600880539759767	0.0655	1.582500440626485	2.5444316254566473	0.1076	1.1375836781987865	2.240947285679638	-0.01275	0.965591898374533	1.8572148928718528	0.0702	1.273475276311094	1.8665263902864893	0.1076	1.7326341414586868	2.163482291593143	-0.01275	1.825388672694842	1.7472895701566138	0.0702	1.714296557273568	1.7559596710839585	0.1076
184	6.161339421613394	1.3608132062173028	1.3887325552450671	0.0301	1.1662353229779907	1.3852177445370932	0.0301	0.9932326629548588	0.8145573413857107	0.129	0.8150738766275037	0.20588432480165914	0.023	0.8936106118378226	0.039511458163102496	0.2179	0.7722184271201267	0.048262709332644475	0.1804	0.7773693178441922	0.1119996256273965	-0.0119	1.5468434887087361	1.3091189793898141	0.0301	1.506072726673	0.7476527842474948	0.129	1.4264118663154557	0.18165832201728824	0.023	1.588859345227953	0.038883912243870604	0.2179	1.6137135016388027	0.04514448308289601	0.1804	1.3480638445400606	0.08365856973233367	-0.0119	1.4722236302889735	2.3634957508788315	0.0008	1.5206709678069696	2.7604338298102356	0.0655	1.581662339806864	2.5427103465073215	0.1076	1.139080725147217	2.2430062817982077	-0.01275	0.9643004585432181	1.857314001797834	0.0702	1.2739903013427551	1.8661880331226726	0.1076	1.731214145234888	2.162052063632866	-0.01275	1.823757279071019	1.7470409935461504	0.0702	1.7090066104042614	1.7571507108403257	0.1076
185	6.19482496194825	1.360784494728426	1.389945128960644	0.0301	1.1639402664525313	1.3863873483506624	0.0301	0.9921275980854672	0.8148049892342819	0.129	0.8147945020419234	0.20605268980328634	0.023	0.8944212631794282	0.03898267809133724	0.2179	0.7750065419984628	0.04743076817034251	0.1804	0.7761483150936311	0.11294505669115303	-0.0119	1.547317436937871	1.3112625701877256	0.0301	1.505205410630283	0.7485619940159434	0.129	1.4279731129382045	0.1827938061709668	0.023	1.5877626137874576	0.03813087985877227	0.2179	1.6131112990081231	0.04417813336176495	0.1804	1.3488829132940325	0.08386590096439804	-0.0119	1.4726646978217048	2.364573889024721	0.0008	1.5206423298247638	2.761385955436053	0.0655	1.581009565553001	2.542319166967853	0.1076	1.139846101861868	2.2430905840491935	-0.01275	0.9633072898560997	1.8569794003619984	0.0702	1.274941695267386	1.8657865835003133	0.1076	1.7305004879162529	2.1631782473667394	-0.01275	1.8290964107216996	1.7458420308508475	0.0702	1.707230843680222	1.758461810349493	0.1076
